<?xml version="1.0" encoding="UTF-8"?>
<svg id="Layer_1" data-name="Layer 1" xmlns="http://www.w3.org/2000/svg" viewBox="0 0 841.89 161.14">
  <defs>
    <style>
      .cls-1 {
        fill: #fff;
      }
    </style>
  </defs>
  <g>
    <path class="cls-1" d="M42.63,48.43h.38c1.41-2.62,3.41-4.75,6-6.38,2.59-1.63,5.62-2.45,9.07-2.45,1.54,0,2.94,.16,4.22,.48v10.75c-1.79-.25-3.52-.38-5.18-.38-9.34,0-14.02,4.86-14.02,14.59v26.5h-11.23V40.75h10.75v7.68Z"/>
    <path class="cls-1" d="M101.28,87.98c-3.84,3.14-9.25,4.7-16.22,4.7-4.87,0-9.15-1.1-12.86-3.31-3.71-2.21-6.58-5.29-8.59-9.26-2.02-3.97-3.02-8.58-3.02-13.82s.99-10.06,2.98-14.06c1.98-4,4.82-7.1,8.5-9.31,3.68-2.21,8.02-3.31,13.01-3.31s9.04,1.02,12.72,3.07c3.68,2.05,6.56,5.04,8.64,8.98,2.08,3.94,3.12,8.62,3.12,14.06,0,.64-.06,1.67-.19,3.07h-37.34c.13,4.54,1.38,8.24,3.74,11.09,2.37,2.85,5.47,4.27,9.31,4.27s6.46-.88,8.45-2.64c1.98-1.76,3.36-3.79,4.13-6.1l11.42,1.25c-1.34,4.42-3.94,8.19-7.78,11.33Zm-25.2-36.24c-2.21,2.4-3.5,5.39-3.89,8.98h25.73c-.32-3.58-1.58-6.58-3.79-8.98-2.21-2.4-5.23-3.6-9.07-3.6s-6.77,1.2-8.98,3.6Zm4.56-16.75l7.78-15.07h12.38l-11.42,15.07h-8.74Z"/>
    <path class="cls-1" d="M135.51,90.86c-2.59-1.21-4.62-2.94-6.1-5.18h-.38v23.52h-11.23V40.75h10.75v6.53h.38c1.41-2.5,3.49-4.4,6.24-5.71,2.75-1.31,5.89-1.97,9.41-1.97,4.42,0,8.34,1.1,11.76,3.31,3.42,2.21,6.11,5.31,8.06,9.31,1.95,4,2.93,8.66,2.93,13.97s-.98,9.87-2.93,13.87c-1.95,4-4.64,7.1-8.06,9.31-3.42,2.21-7.31,3.31-11.66,3.31-3.52,0-6.58-.61-9.17-1.82Zm-3.46-37.63c-2.46,3.14-3.7,7.46-3.7,12.96s1.23,9.83,3.7,12.96c2.46,3.14,5.81,4.7,10.03,4.7s7.66-1.57,10.13-4.7c2.46-3.13,3.7-7.46,3.7-12.96s-1.23-9.82-3.7-12.96c-2.46-3.14-5.84-4.7-10.13-4.7s-7.57,1.57-10.03,4.7Z"/>
    <path class="cls-1" d="M215.23,87.98c-3.84,3.14-9.25,4.7-16.22,4.7-4.86,0-9.15-1.1-12.86-3.31-3.71-2.21-6.58-5.29-8.59-9.26-2.02-3.97-3.02-8.58-3.02-13.82s.99-10.06,2.98-14.06c1.98-4,4.82-7.1,8.5-9.31,3.68-2.21,8.02-3.31,13.01-3.31s9.04,1.02,12.72,3.07c3.68,2.05,6.56,5.04,8.64,8.98,2.08,3.94,3.12,8.62,3.12,14.06,0,.64-.06,1.67-.19,3.07h-37.34c.13,4.54,1.38,8.24,3.74,11.09,2.37,2.85,5.47,4.27,9.31,4.27s6.46-.88,8.45-2.64c1.98-1.76,3.36-3.79,4.13-6.1l11.42,1.25c-1.34,4.42-3.94,8.19-7.78,11.33Zm-25.2-36.24c-2.21,2.4-3.5,5.39-3.89,8.98h25.73c-.32-3.58-1.58-6.58-3.79-8.98-2.21-2.4-5.23-3.6-9.07-3.6s-6.77,1.2-8.98,3.6Z"/>
    <path class="cls-1" d="M240.58,48.43h.38c1.41-2.62,3.41-4.75,6-6.38,2.59-1.63,5.62-2.45,9.07-2.45,1.54,0,2.94,.16,4.22,.48v10.75c-1.79-.25-3.52-.38-5.18-.38-9.35,0-14.02,4.86-14.02,14.59v26.5h-11.23V40.75h10.75v7.68Z"/>
    <path class="cls-1" d="M291.36,82.51v9.02c-.64,.25-1.76,.51-3.36,.77-1.6,.26-3.11,.38-4.51,.38-4.8,0-8.29-.91-10.46-2.74-2.18-1.82-3.26-5.04-3.26-9.65v-31.49h-8.26v-8.06h8.26v-14.21h11.23v14.21h10.85v8.06h-10.85v30.05c0,1.79,.37,2.98,1.1,3.55,.74,.58,2.03,.86,3.89,.86,2.37,0,4.16-.25,5.38-.77Z"/>
    <path class="cls-1" d="M334.71,42.86c3.81,2.18,6.73,5.28,8.78,9.31,2.05,4.03,3.07,8.71,3.07,14.02s-1.02,9.97-3.07,13.97c-2.05,4-4.98,7.09-8.78,9.26-3.81,2.18-8.24,3.26-13.3,3.26s-9.49-1.09-13.3-3.26c-3.81-2.17-6.74-5.26-8.78-9.26-2.05-4-3.07-8.66-3.07-13.97s1.02-9.98,3.07-14.02c2.05-4.03,4.98-7.14,8.78-9.31,3.81-2.18,8.24-3.26,13.3-3.26s9.49,1.09,13.3,3.26Zm-3.31,36.34c2.43-3.1,3.65-7.44,3.65-13.01s-1.22-9.92-3.65-13.06c-2.43-3.13-5.76-4.7-9.98-4.7s-7.55,1.57-9.98,4.7c-2.43,3.14-3.65,7.49-3.65,13.06s1.21,9.9,3.65,13.01c2.43,3.1,5.76,4.66,9.98,4.66s7.55-1.55,9.98-4.66Z"/>
    <path class="cls-1" d="M367.68,22.03v11.04h-11.23v-11.04h11.23Zm0,18.72v50.78h-11.23V40.75h11.23Z"/>
    <path class="cls-1" d="M389.47,48.43h.38c1.41-2.62,3.41-4.75,6-6.38,2.59-1.63,5.62-2.45,9.07-2.45,1.54,0,2.94,.16,4.22,.48v10.75c-1.79-.25-3.52-.38-5.18-.38-9.35,0-14.02,4.86-14.02,14.59v26.5h-11.23V40.75h10.75v7.68Z"/>
    <path class="cls-1" d="M450.05,87.98c-3.84,3.14-9.25,4.7-16.22,4.7-4.86,0-9.15-1.1-12.86-3.31-3.71-2.21-6.58-5.29-8.59-9.26-2.02-3.97-3.02-8.58-3.02-13.82s.99-10.06,2.98-14.06c1.98-4,4.81-7.1,8.5-9.31,3.68-2.21,8.02-3.31,13.01-3.31s9.04,1.02,12.72,3.07c3.68,2.05,6.56,5.04,8.64,8.98,2.08,3.94,3.12,8.62,3.12,14.06,0,.64-.06,1.67-.19,3.07h-37.34c.13,4.54,1.38,8.24,3.74,11.09,2.37,2.85,5.47,4.27,9.31,4.27s6.46-.88,8.45-2.64c1.98-1.76,3.36-3.79,4.13-6.1l11.42,1.25c-1.34,4.42-3.94,8.19-7.78,11.33Zm-25.2-36.24c-2.21,2.4-3.5,5.39-3.89,8.98h25.73c-.32-3.58-1.58-6.58-3.79-8.98-2.21-2.4-5.23-3.6-9.07-3.6s-6.77,1.2-8.98,3.6Z"/>
    <path class="cls-1" d="M503.14,75.21l6.53,.96c-1.41,4.42-3.91,8.27-7.49,11.57-3.58,3.3-8.42,4.94-14.5,4.94-4.48,0-8.45-1.07-11.9-3.22-3.46-2.14-6.14-5.2-8.06-9.17-1.92-3.97-2.88-8.61-2.88-13.92s.97-9.95,2.93-13.92c1.95-3.97,4.67-7.02,8.16-9.17,3.49-2.14,7.47-3.22,11.95-3.22,5.82,0,10.35,1.44,13.58,4.32,3.23,2.88,5.55,5.89,6.96,9.02l-6.05,2.02c-1.34-2.62-3.06-4.96-5.14-7.01-2.08-2.05-5.2-3.07-9.36-3.07-4.99,0-8.99,1.89-12,5.66-3.01,3.78-4.51,8.9-4.51,15.36s1.49,11.57,4.46,15.31c2.98,3.74,6.93,5.62,11.86,5.62,7.42,0,12.58-4.03,15.46-12.1Z"/>
    <path class="cls-1" d="M550.66,83.85c-1.28,2.5-3.39,4.59-6.34,6.29-2.94,1.69-6.24,2.54-9.89,2.54-5.38,0-9.7-1.54-12.96-4.61s-4.9-7.46-4.9-13.15V41.23h6.24v31.1c0,5.18,1.01,8.98,3.02,11.38,2.02,2.4,5.26,3.6,9.74,3.6,4.16,0,7.69-1.47,10.61-4.42,2.91-2.94,4.37-7.42,4.37-13.44v-28.22h6.34v50.3h-6.05v-7.68h-.19Z"/>
    <path class="cls-1" d="M574.94,22.03V91.53h-6.24V22.03h6.24Z"/>
    <path class="cls-1" d="M594.14,22.03v7.78h-6.82v-7.78h6.82Zm-.29,19.2v50.3h-6.24V41.23h6.24Z"/>
    <path class="cls-1" d="M612.67,48.91c1.34-2.5,3.47-4.59,6.38-6.29,2.91-1.69,6.22-2.54,9.94-2.54,5.38,0,9.7,1.54,12.96,4.61,3.26,3.07,4.9,7.43,4.9,13.06v33.79h-6.34v-31.1c0-5.18-1.01-8.98-3.02-11.38-2.02-2.4-5.23-3.6-9.65-3.6s-7.79,1.46-10.7,4.37c-2.91,2.91-4.37,7.38-4.37,13.39v28.32h-6.24V41.23h5.95v7.68h.19Z"/>
    <path class="cls-1" d="M701.56,85.96v5.57c-.77,.32-2.11,.48-4.03,.48-2.69,0-4.66-.61-5.9-1.82-1.25-1.21-1.91-3.07-1.97-5.57h-.19c-1.86,2.88-4.42,4.94-7.68,6.19-3.26,1.25-6.62,1.87-10.08,1.87-2.75,0-5.28-.61-7.58-1.82-2.3-1.21-4.13-2.94-5.47-5.18-1.34-2.24-2.02-4.8-2.02-7.68,0-5.18,1.78-8.89,5.33-11.14,3.55-2.24,8.59-3.81,15.12-4.7,3.65-.51,6.34-1.01,8.06-1.49,1.73-.48,2.91-1.07,3.55-1.78,.64-.7,.96-1.73,.96-3.07,0-3.26-.98-5.82-2.93-7.68-1.95-1.86-4.94-2.78-8.98-2.78-3.14,0-5.9,.78-8.3,2.35-2.4,1.57-4.11,4.24-5.14,8.02l-5.86-1.44c1.21-4.8,3.57-8.37,7.06-10.7,3.49-2.34,7.66-3.5,12.53-3.5,6.08,0,10.59,1.39,13.54,4.18,2.94,2.78,4.42,6.58,4.42,11.38v27.36c0,1.28,.24,2.18,.72,2.69,.48,.51,1.2,.77,2.16,.77,1.02,0,1.92-.16,2.69-.48Zm-15.74-20.5c-1.92,.42-5.02,.98-9.31,1.68-3.65,.58-6.78,1.68-9.41,3.31-2.62,1.63-3.94,4.14-3.94,7.54,0,2.88,.9,5.15,2.69,6.82,1.79,1.67,4.16,2.5,7.1,2.5,4.29,0,8.14-1.23,11.57-3.7,3.42-2.46,5.14-6.61,5.14-12.43v-7.58c-.64,.83-1.92,1.46-3.84,1.87Z"/>
    <path class="cls-1" d="M716.06,22.03v7.78h-6.82v-7.78h6.82Zm-.29,19.2v50.3h-6.24V41.23h6.24Z"/>
    <path class="cls-1" d="M732.47,50.83h.19c1.34-3.39,3.5-6.03,6.48-7.92,2.98-1.89,6.42-2.83,10.32-2.83,1.54,0,2.88,.13,4.03,.38v6.05c-1.54-.19-3.04-.29-4.51-.29-4.87,0-8.78,1.68-11.76,5.04-2.98,3.36-4.46,8.27-4.46,14.74v25.54h-6.24V41.23h5.95v9.6Z"/>
    <path class="cls-1" d="M790.74,88.31c-3.58,2.91-8.45,4.37-14.59,4.37-4.42,0-8.32-1.07-11.71-3.22-3.39-2.14-6.05-5.21-7.97-9.22-1.92-4-2.88-8.65-2.88-13.97s.96-9.85,2.88-13.82c1.92-3.97,4.57-7.02,7.97-9.17,3.39-2.14,7.3-3.22,11.71-3.22s8.46,1.1,11.95,3.31c3.49,2.21,6.18,5.41,8.06,9.6,1.89,4.19,2.74,9.17,2.54,14.93h-38.59c.13,5.76,1.66,10.43,4.61,14.02,2.94,3.58,6.75,5.38,11.42,5.38,4.35,0,7.81-1.04,10.37-3.12,2.56-2.08,4.35-4.59,5.38-7.54l6.43,.86c-1.47,4.29-4,7.89-7.58,10.8Zm-25.73-38.02c-2.88,3.3-4.48,7.41-4.8,12.34h31.97c-.32-4.93-1.94-9.04-4.85-12.34-2.91-3.29-6.64-4.94-11.18-4.94s-8.26,1.65-11.14,4.94Z"/>
  </g>
  <g>
    <path class="cls-1" d="M327.72,127.46c-2.16,1.97-4.95,2.95-8.36,2.95-2.65,0-5-.62-7.03-1.85-2.04-1.23-3.62-2.99-4.76-5.29-1.13-2.3-1.7-5-1.7-8.12s.57-5.82,1.7-8.12c1.13-2.3,2.72-4.06,4.76-5.29,2.04-1.23,4.38-1.85,7.03-1.85s5,.62,7.05,1.85,3.64,2.99,4.78,5.29,1.7,5,1.7,8.12c0,3.94-.92,7.18-2.75,9.72l4.35,5.86h-4.43l-2.34-3.28Zm-3.24-1.6c1.48-.96,2.62-2.35,3.42-4.18,.81-1.83,1.21-4,1.21-6.52s-.4-4.69-1.21-6.52c-.81-1.83-1.95-3.23-3.42-4.18-1.48-.96-3.18-1.44-5.12-1.44s-3.64,.48-5.1,1.44c-1.46,.96-2.6,2.35-3.4,4.18-.81,1.83-1.21,4-1.21,6.52s.4,4.69,1.21,6.52,1.94,3.23,3.4,4.18c1.46,.96,3.16,1.44,5.1,1.44s3.65-.48,5.12-1.44Z"/>
    <path class="cls-1" d="M352.36,126.73c-.68,1.12-1.63,2-2.83,2.62-1.2,.63-2.54,.94-4.02,.94-2.21,0-4.04-.66-5.47-1.97-1.43-1.31-2.15-3.21-2.15-5.7v-14.39h3.44v13.2c0,2.08,.41,3.59,1.23,4.53,.82,.94,2.1,1.42,3.85,1.42,1.64,0,3.03-.61,4.18-1.83,1.15-1.22,1.72-3,1.72-5.35v-11.97h3.44v21.57h-3.28v-3.08h-.12Z"/>
    <path class="cls-1" d="M377.45,126.89v2.91c-.36,.14-1,.21-1.93,.21-1.12,0-1.98-.23-2.56-.7-.59-.46-.94-1.19-1.05-2.17h-.12c-.74,1.09-1.78,1.89-3.12,2.4-1.34,.51-2.72,.76-4.14,.76-1.23,0-2.35-.26-3.36-.78-1.01-.52-1.82-1.26-2.42-2.23-.6-.97-.9-2.08-.9-3.34,0-2.24,.75-3.86,2.24-4.86,1.49-1,3.67-1.67,6.54-2.03,1.42-.19,2.5-.39,3.24-.59,.74-.2,1.25-.46,1.54-.76,.29-.3,.43-.71,.43-1.23,0-1.2-.38-2.15-1.15-2.83-.77-.68-1.95-1.02-3.57-1.02-1.23,0-2.33,.31-3.3,.94-.97,.63-1.65,1.65-2.03,3.08l-3.16-.78c.49-1.97,1.51-3.48,3.05-4.53,1.54-1.05,3.4-1.58,5.56-1.58,2.76,0,4.79,.6,6.09,1.8,1.3,1.2,1.95,2.82,1.95,4.84v11.32c0,.52,.09,.88,.29,1.09,.19,.21,.46,.31,.82,.31,.38,0,.74-.07,1.07-.21Zm-7.36-7.79c-.86,.19-2.13,.4-3.79,.62-1.37,.19-2.53,.62-3.49,1.29-.96,.67-1.43,1.63-1.43,2.89,0,1.12,.34,2,1.03,2.64,.68,.64,1.61,.96,2.79,.96,1.04,0,2.06-.21,3.07-.62,1.01-.41,1.86-1.09,2.54-2.03,.68-.94,1.03-2.17,1.03-3.67v-2.91c-.3,.36-.88,.63-1.74,.82Z"/>
    <path class="cls-1" d="M384.83,100.12v29.68h-3.44v-29.68h3.44Z"/>
    <path class="cls-1" d="M392.25,100.12v3.94h-3.53v-3.94h3.53Zm-.04,8.12v21.57h-3.44v-21.57h3.44Z"/>
    <path class="cls-1" d="M404.51,127.2c.46-.1,.82-.2,1.07-.31v2.91c-.25,.14-.66,.25-1.25,.35-.59,.1-1.17,.14-1.74,.14-1.83,0-3.16-.38-3.98-1.13-.82-.75-1.23-2.03-1.23-3.83v-14.43h-3.61v-2.67h3.61v-6.19h3.44v6.19h4.96v2.67h-4.96v14.06c0,.88,.17,1.49,.51,1.84s.95,.53,1.83,.53c.44,0,.89-.05,1.35-.14Z"/>
    <path class="cls-1" d="M418.12,129.8c-.9,2.3-1.75,4.02-2.54,5.19-.79,1.16-1.58,1.93-2.36,2.3-.78,.37-1.71,.55-2.81,.55-.85,0-1.64-.07-2.38-.21v-3.03c.57,.16,1.2,.25,1.89,.25s1.3-.12,1.76-.35,.9-.65,1.31-1.25c.41-.6,.85-1.49,1.31-2.67l.41-1.03-8.69-21.32h3.77l6.56,17.26h.12l6.27-17.26h3.73l-8.36,21.57Z"/>
    <path class="cls-1" d="M461.01,129.8h-3.81l-5.33-16.89h-.12l-5.33,16.89h-3.65l-7.22-21.57h3.81l5.29,17.34h.12l5.21-17.34h3.94l5.21,17.34h.12l5.25-17.34h3.65l-7.13,21.57Z"/>
    <path class="cls-1" d="M473.31,100.12v3.94h-3.53v-3.94h3.53Zm-.04,8.12v21.57h-3.44v-21.57h3.44Z"/>
    <path class="cls-1" d="M486.39,127.2c.46-.1,.82-.2,1.07-.31v2.91c-.25,.14-.66,.25-1.25,.35-.59,.1-1.17,.14-1.74,.14-1.83,0-3.16-.38-3.98-1.13-.82-.75-1.23-2.03-1.23-3.83v-14.43h-3.61v-2.67h3.61v-6.19h3.44v6.19h4.96v2.67h-4.96v14.06c0,.88,.17,1.49,.51,1.84s.95,.53,1.83,.53c.44,0,.89-.05,1.35-.14Z"/>
    <path class="cls-1" d="M492.99,111.31c.68-1.12,1.62-1.99,2.81-2.62,1.19-.63,2.49-.94,3.92-.94,2.19,0,4,.66,5.43,1.97,1.43,1.31,2.15,3.21,2.15,5.7v14.39h-3.44v-13.2c0-2.08-.42-3.59-1.25-4.53-.83-.94-2.13-1.41-3.88-1.41-.98,0-1.93,.29-2.83,.86-.9,.57-1.63,1.42-2.19,2.54-.56,1.12-.84,2.46-.84,4.02v11.73h-3.44v-29.68h3.44v11.19h.12Z"/>
    <path class="cls-1" d="M525.93,109.14c1.54,.93,2.74,2.24,3.59,3.94,.85,1.7,1.27,3.68,1.27,5.95s-.42,4.25-1.27,5.95c-.85,1.69-2.04,3.01-3.59,3.94-1.54,.93-3.33,1.39-5.35,1.39s-3.81-.46-5.35-1.39c-1.54-.93-2.74-2.24-3.59-3.94-.85-1.69-1.27-3.68-1.27-5.95s.42-4.25,1.27-5.95c.85-1.69,2.04-3.01,3.59-3.94,1.54-.93,3.33-1.39,5.35-1.39s3.81,.47,5.35,1.39Zm-.49,16.05c1.22-1.52,1.83-3.57,1.83-6.17s-.61-4.65-1.83-6.17c-1.22-1.52-2.84-2.28-4.86-2.28s-3.64,.76-4.86,2.28-1.82,3.57-1.82,6.17,.61,4.65,1.82,6.17c1.22,1.52,2.84,2.28,4.86,2.28s3.64-.76,4.86-2.28Z"/>
    <path class="cls-1" d="M548.79,126.73c-.68,1.12-1.63,2-2.83,2.62-1.2,.63-2.54,.94-4.02,.94-2.21,0-4.04-.66-5.47-1.97-1.43-1.31-2.15-3.21-2.15-5.7v-14.39h3.44v13.2c0,2.08,.41,3.59,1.23,4.53,.82,.94,2.1,1.42,3.85,1.42,1.64,0,3.03-.61,4.18-1.83,1.15-1.22,1.72-3,1.72-5.35v-11.97h3.44v21.57h-3.28v-3.08h-.12Z"/>
    <path class="cls-1" d="M564.98,127.2c.46-.1,.82-.2,1.07-.31v2.91c-.25,.14-.66,.25-1.25,.35-.59,.1-1.17,.14-1.74,.14-1.83,0-3.16-.38-3.98-1.13-.82-.75-1.23-2.03-1.23-3.83v-14.43h-3.61v-2.67h3.61v-6.19h3.44v6.19h4.96v2.67h-4.96v14.06c0,.88,.17,1.49,.51,1.84s.95,.53,1.83,.53c.44,0,.89-.05,1.35-.14Z"/>
    <path class="cls-1" d="M592.78,125.99c.93-.98,1.6-2.13,2.01-3.44l3.53,.53c-.57,1.91-1.64,3.59-3.2,5.04-1.56,1.45-3.69,2.17-6.4,2.17-1.97,0-3.71-.46-5.23-1.39-1.52-.93-2.69-2.24-3.53-3.94-.83-1.69-1.25-3.68-1.25-5.95s.42-4.22,1.25-5.92c.83-1.71,2.01-3.03,3.53-3.96,1.52-.93,3.26-1.39,5.23-1.39,2.62,0,4.65,.64,6.09,1.91,1.44,1.27,2.44,2.62,3.01,4.04l-3.24,1.07c-1.12-2.79-3.08-4.18-5.86-4.18-1.97,0-3.54,.76-4.71,2.28s-1.76,3.57-1.76,6.17,.59,4.65,1.76,6.17c1.17,1.52,2.75,2.28,4.71,2.28,1.78,0,3.13-.49,4.06-1.48Z"/>
    <path class="cls-1" d="M616.58,109.14c1.54,.93,2.74,2.24,3.59,3.94,.85,1.7,1.27,3.68,1.27,5.95s-.42,4.25-1.27,5.95c-.85,1.69-2.04,3.01-3.59,3.94-1.54,.93-3.33,1.39-5.35,1.39s-3.81-.46-5.35-1.39c-1.54-.93-2.74-2.24-3.59-3.94-.85-1.69-1.27-3.68-1.27-5.95s.42-4.25,1.27-5.95c.85-1.69,2.04-3.01,3.59-3.94,1.54-.93,3.33-1.39,5.35-1.39s3.81,.47,5.35,1.39Zm-.49,16.05c1.22-1.52,1.83-3.57,1.83-6.17s-.61-4.65-1.83-6.17c-1.22-1.52-2.84-2.28-4.86-2.28s-3.64,.76-4.86,2.28-1.82,3.57-1.82,6.17,.61,4.65,1.82,6.17c1.22,1.52,2.84,2.28,4.86,2.28s3.64-.76,4.86-2.28Z"/>
    <path class="cls-1" d="M650.9,108.6c1.08,.57,1.94,1.43,2.58,2.58,.64,1.15,.96,2.56,.96,4.22v14.39h-3.44v-13.2c0-2.08-.38-3.59-1.15-4.53-.77-.94-1.94-1.41-3.53-1.41-1.48,0-2.73,.59-3.77,1.76-1.04,1.18-1.56,2.92-1.56,5.25v12.14h-3.44v-13.2c0-2.08-.38-3.59-1.13-4.53s-1.92-1.41-3.51-1.41c-1.48,0-2.73,.61-3.77,1.82-1.04,1.22-1.56,3-1.56,5.35v11.97h-3.44v-21.57h3.28v3.07h.12c.66-1.12,1.54-1.99,2.67-2.62,1.12-.63,2.34-.94,3.65-.94,1.39,0,2.64,.31,3.75,.94,1.11,.63,1.96,1.56,2.56,2.79,1.75-2.49,4.13-3.73,7.13-3.73,1.31,0,2.51,.29,3.59,.86Z"/>
    <path class="cls-1" d="M666,129.33c-1.23-.64-2.13-1.52-2.71-2.64h-.12v10.66h-3.44v-29.11h3.28v3.28h.12c.6-1.17,1.53-2.1,2.79-2.77,1.26-.67,2.68-1,4.26-1,1.89,0,3.57,.47,5.04,1.39,1.48,.93,2.62,2.25,3.44,3.96,.82,1.71,1.23,3.68,1.23,5.92s-.41,4.22-1.23,5.92-1.97,3.03-3.44,3.96c-1.48,.93-3.16,1.39-5.04,1.39-1.56,0-2.95-.32-4.18-.96Zm-1.23-16.48c-1.23,1.52-1.84,3.57-1.84,6.17s.62,4.65,1.84,6.17c1.23,1.52,2.84,2.28,4.84,2.28s3.69-.76,4.92-2.28c1.23-1.52,1.84-3.57,1.84-6.17s-.62-4.65-1.84-6.17c-1.23-1.52-2.87-2.28-4.92-2.28s-3.61,.76-4.84,2.28Z"/>
    <path class="cls-1" d="M686.71,111.92h.12c.57-1.28,1.45-2.3,2.62-3.05,1.17-.75,2.56-1.13,4.14-1.13,.63,0,1.24,.06,1.84,.16v3.32c-.9-.08-1.57-.12-2.01-.12-2,0-3.59,.61-4.78,1.84-1.19,1.23-1.78,3.12-1.78,5.66v11.19h-3.44v-21.57h3.28v3.69Z"/>
    <path class="cls-1" d="M710.75,109.14c1.54,.93,2.74,2.24,3.59,3.94,.85,1.7,1.27,3.68,1.27,5.95s-.42,4.25-1.27,5.95c-.85,1.69-2.04,3.01-3.59,3.94-1.54,.93-3.33,1.39-5.35,1.39s-3.81-.46-5.35-1.39c-1.54-.93-2.74-2.24-3.59-3.94-.85-1.69-1.27-3.68-1.27-5.95s.42-4.25,1.27-5.95c.85-1.69,2.04-3.01,3.59-3.94,1.54-.93,3.33-1.39,5.35-1.39s3.81,.47,5.35,1.39Zm-.49,16.05c1.22-1.52,1.83-3.57,1.83-6.17s-.61-4.65-1.83-6.17c-1.22-1.52-2.84-2.28-4.86-2.28s-3.64,.76-4.86,2.28c-1.22,1.52-1.82,3.57-1.82,6.17s.61,4.65,1.82,6.17c1.22,1.52,2.83,2.28,4.86,2.28s3.64-.76,4.86-2.28Z"/>
    <path class="cls-1" d="M745.07,108.6c1.08,.57,1.94,1.43,2.58,2.58,.64,1.15,.96,2.56,.96,4.22v14.39h-3.44v-13.2c0-2.08-.38-3.59-1.15-4.53-.77-.94-1.94-1.41-3.53-1.41-1.48,0-2.73,.59-3.77,1.76s-1.56,2.92-1.56,5.25v12.14h-3.44v-13.2c0-2.08-.38-3.59-1.13-4.53-.75-.94-1.92-1.41-3.51-1.41-1.48,0-2.73,.61-3.77,1.82-1.04,1.22-1.56,3-1.56,5.35v11.97h-3.44v-21.57h3.28v3.07h.12c.66-1.12,1.54-1.99,2.67-2.62,1.12-.63,2.34-.94,3.65-.94,1.39,0,2.64,.31,3.75,.94,1.11,.63,1.96,1.56,2.56,2.79,1.75-2.49,4.13-3.73,7.13-3.73,1.31,0,2.51,.29,3.59,.86Z"/>
    <path class="cls-1" d="M756.45,100.12v3.94h-3.53v-3.94h3.53Zm-.04,8.12v21.57h-3.44v-21.57h3.44Z"/>
    <path class="cls-1" d="M771.62,111.53c-1.01-.72-2.19-1.09-3.53-1.09-1.42,0-2.56,.31-3.4,.94-.85,.63-1.27,1.48-1.27,2.54,0,.96,.38,1.65,1.15,2.09,.76,.44,1.86,.78,3.28,1.02l2.3,.37c2.24,.38,3.98,1,5.23,1.87,1.24,.86,1.87,2.3,1.87,4.33,0,2.13-.83,3.78-2.48,4.94-1.65,1.16-3.78,1.74-6.38,1.74s-4.74-.62-6.42-1.85c-1.68-1.23-2.67-2.86-2.97-4.88l3.16-.7c.3,1.53,1.01,2.7,2.13,3.51,1.12,.81,2.5,1.21,4.14,1.21s2.83-.35,3.81-1.05,1.48-1.63,1.48-2.81c0-1.04-.4-1.79-1.21-2.25-.81-.46-2.03-.85-3.67-1.15l-2.25-.41c-2.05-.36-3.68-.96-4.88-1.8-1.2-.85-1.8-2.23-1.8-4.14,0-1.2,.35-2.28,1.04-3.24,.7-.96,1.67-1.69,2.93-2.21,1.26-.52,2.68-.78,4.26-.78,1.48,0,2.83,.27,4.08,.82,1.24,.55,2.25,1.28,3.03,2.21,.78,.93,1.26,1.94,1.46,3.03l-3.16,.7c-.27-1.26-.92-2.25-1.93-2.97Z"/>
    <path class="cls-1" d="M795.73,128.39c-1.56,1.27-3.7,1.91-6.44,1.91-1.94,0-3.66-.46-5.17-1.39-1.5-.93-2.67-2.25-3.5-3.96-.83-1.71-1.25-3.68-1.25-5.92s.41-4.22,1.23-5.92c.82-1.71,1.97-3.03,3.46-3.96,1.49-.93,3.22-1.39,5.19-1.39s3.62,.44,5.12,1.33c1.5,.89,2.68,2.17,3.53,3.85,.85,1.68,1.27,3.67,1.27,5.97,0,.41-.01,.72-.04,.94h-16.28c.05,2.27,.67,4.11,1.84,5.51,1.17,1.41,2.71,2.11,4.59,2.11,1.75,0,3.12-.42,4.12-1.27,1-.85,1.69-1.84,2.07-2.99l3.48,.45c-.6,1.89-1.68,3.46-3.24,4.74Zm-10.89-15.93c-1.11,1.26-1.74,2.82-1.91,4.67h12.67c-.16-1.86-.81-3.42-1.93-4.67-1.12-1.26-2.6-1.89-4.43-1.89s-3.3,.63-4.41,1.89Z"/>
  </g>
</svg>